# xmcd CD database file
#
# Track frame offsets:
#	150
#	15790
#	29519
#
# Disc length: 596 seconds
#
# Revision: 0
# Processed by: cddbd v1.5PL3 Copyright (c) Steve Scherf et al.
# Submitted via: CDex 1.51
#
DISCID=14025203
DTITLE=作詞/作曲　吉野奈奈　＊　唄　アヴェク・アムール - memorial of EF63
DYEAR=1997
DGENRE=JPop
TTITLE0=峠のシェルパ
TTITLE1=EF63 メモリアルサウンド
TTITLE2=峠のシェルパ（カラオケバージョン）
EXTD=YEAR: 1997
EXTT0=
EXTT1=
EXTT2=
PLAYORDER=
